<svg width="27" height="27" viewBox="0 0 27 27" fill="none" xmlns="http://www.w3.org/2000/svg">
<path d="M9.14201 8.05089L4.28329 13.2843C1.92777 15.8214 0.75 17.09 0.75 18.6704C0.75 20.2507 1.92777 21.5193 4.28329 24.0564L4.83472 24.6504C5.33852 25.193 5.59042 25.4643 5.90984 25.6071C6.22917 25.75 6.58384 25.75 7.29351 25.75H10.9907C11.7002 25.75 12.0549 25.75 12.3744 25.6071C12.6937 25.4643 12.9455 25.193 13.4494 24.6504L19.0012 18.6704M9.14201 8.05089L12.4697 4.46661C14.7612 1.99848 15.9069 0.764411 17.3257 0.750161C17.3472 0.749946 17.3687 0.749946 17.3904 0.750161C18.8092 0.764411 19.9549 1.99848 22.2464 4.46661C24.573 6.97286 25.7365 8.22589 25.7499 9.78536C25.75 9.80893 25.75 9.83268 25.7499 9.85625C25.7365 11.4157 24.573 12.6687 22.2464 15.175L19.0012 18.6704M9.14201 8.05089L19.0012 18.6704" stroke="#212326" stroke-width="1.5" stroke-linecap="round" stroke-linejoin="round"/>
</svg>
