<svg width="27" height="27" viewBox="0 0 27 27" fill="none" xmlns="http://www.w3.org/2000/svg">
<path d="M2 17.2129L7.58709 11.762C8.01154 11.3479 8.58722 11.1152 9.1875 11.1152C9.78777 11.1152 10.3635 11.3479 10.7879 11.762L15.75 16.6031M15.75 16.6031L17.625 18.4324M15.75 16.6031L18.2121 14.201C18.6365 13.787 19.2122 13.5543 19.8125 13.5543C20.4127 13.5543 20.9885 13.787 21.4129 14.201L24.5 17.2129" stroke="#212326" stroke-width="1.5" stroke-linecap="round" stroke-linejoin="round"/>
<path d="M13.25 1.35938C7.68457 1.35938 4.90184 1.35937 3.05626 2.89723C2.79418 3.1156 2.55011 3.35373 2.32628 3.60942C0.75 5.41001 0.75 8.12491 0.75 13.5547C0.75 18.9844 0.75 21.6994 2.32628 23.4999C2.55011 23.7556 2.79418 23.9937 3.05626 24.2121C4.90184 25.75 7.68457 25.75 13.25 25.75C18.8154 25.75 21.5982 25.75 23.4437 24.2121C23.7058 23.9937 23.9499 23.7556 24.1737 23.4999C25.75 21.6994 25.75 18.9844 25.75 13.5547" stroke="#212326" stroke-width="1.5" stroke-linecap="round" stroke-linejoin="round"/>
<path d="M25.1245 5.01836H20.7495M20.7495 5.01836H16.3745M20.7495 5.01836V0.75M20.7495 5.01836V9.28671" stroke="#212326" stroke-width="1.5" stroke-linecap="round" stroke-linejoin="round"/>
</svg>
