<svg width="27" height="27" viewBox="0 0 27 27" fill="none" xmlns="http://www.w3.org/2000/svg">
<path d="M3.375 18L8.40338 12.9716C8.78538 12.5897 9.3035 12.375 9.84375 12.375C10.384 12.375 10.9021 12.5897 11.2841 12.9716L15.75 17.4375M15.75 17.4375L17.4375 19.125M15.75 17.4375L17.9659 15.2216C18.3478 14.8397 18.866 14.625 19.4062 14.625C19.9465 14.625 20.4647 14.8397 20.8466 15.2216L23.625 18" stroke="#212326" stroke-width="1.5" stroke-linecap="round" stroke-linejoin="round"/>
<path d="M13.5 3.375C8.49111 3.375 5.98666 3.375 4.32564 4.79365C4.08977 4.99509 3.87009 5.21477 3.66865 5.45064C2.25 7.11166 2.25 9.61611 2.25 14.625C2.25 19.6339 2.25 22.1383 3.66865 23.7993C3.87009 24.0352 4.08977 24.2549 4.32564 24.4563C5.98666 25.875 8.49111 25.875 13.5 25.875C18.5089 25.875 21.0133 25.875 22.6743 24.4563C22.9102 24.2549 23.1299 24.0352 23.3313 23.7993C24.75 22.1383 24.75 19.6339 24.75 14.625" stroke="#212326" stroke-width="1.5" stroke-linecap="round" stroke-linejoin="round"/>
<path d="M24.1875 6.75H20.25M20.25 6.75H16.3125M20.25 6.75V2.8125M20.25 6.75V10.6875" stroke="#212326" stroke-width="1.5" stroke-linecap="round" stroke-linejoin="round"/>
</svg>
