<svg width="27" height="27" viewBox="0 0 27 27" fill="none" xmlns="http://www.w3.org/2000/svg">
<path d="M16.375 7.00098H10.125C6.01565 7.00098 3.96097 7.00098 2.57804 8.13589C2.32486 8.34366 2.09272 8.57579 1.88495 8.82896C0.75 10.2119 0.75 12.2664 0.75 16.3757C0.75 20.4849 0.75 22.5395 1.88495 23.9224C2.09272 24.1756 2.32486 24.4077 2.57804 24.6154C3.96097 25.7504 6.01565 25.7504 10.125 25.7504H16.375C20.4844 25.7504 22.539 25.7504 23.922 24.6154C24.1751 24.4077 24.4072 24.1756 24.615 23.9224C25.75 22.5395 25.75 20.4849 25.75 16.3757C25.75 12.2664 25.75 10.2119 24.615 8.82896C24.4072 8.57579 24.1751 8.34366 23.922 8.13589C22.539 7.00098 20.4844 7.00098 16.375 7.00098Z" stroke="#212326" stroke-width="1.5" stroke-linecap="round"/>
<path d="M13.25 6.99981V4.49988C13.25 3.80955 13.8096 3.24992 14.5 3.24992C15.1904 3.24992 15.75 2.69029 15.75 1.99996V0.75" stroke="#212326" stroke-width="1.5" stroke-linecap="round" stroke-linejoin="round"/>
<path d="M6.99951 13.25H8.24951" stroke="#212326" stroke-width="1.5" stroke-linecap="round" stroke-linejoin="round"/>
<path d="M12.6245 13.25H13.8745" stroke="#212326" stroke-width="1.5" stroke-linecap="round" stroke-linejoin="round"/>
<path d="M18.2495 13.25H19.4995" stroke="#212326" stroke-width="1.5" stroke-linecap="round" stroke-linejoin="round"/>
<path d="M6.99951 19.499H19.4995" stroke="#212326" stroke-width="1.5" stroke-linecap="round" stroke-linejoin="round"/>
</svg>
