<svg width="27" height="27" viewBox="0 0 27 27" fill="none" xmlns="http://www.w3.org/2000/svg">
<path d="M13.25 25.75C20.1536 25.75 25.75 20.1536 25.75 13.25C25.75 6.34644 20.1536 0.75 13.25 0.75C6.34644 0.75 0.75 6.34644 0.75 13.25C0.75 20.1536 6.34644 25.75 13.25 25.75Z" stroke="#212326" stroke-width="1.5" stroke-linecap="round" stroke-linejoin="round"/>
<path d="M13.25 8.25V13.25" stroke="black" stroke-width="1.5" stroke-linecap="round" stroke-linejoin="round"/>
<path d="M13.4062 17.9375H13.25M13.5625 17.9375C13.5625 18.1101 13.4226 18.25 13.25 18.25C13.0774 18.25 12.9375 18.1101 12.9375 17.9375C12.9375 17.7649 13.0774 17.625 13.25 17.625C13.4226 17.625 13.5625 17.7649 13.5625 17.9375Z" stroke="black" stroke-width="1.5" stroke-linecap="round" stroke-linejoin="round"/>
</svg>
