<svg width="25" height="25" viewBox="0 0 25 25" fill="none" xmlns="http://www.w3.org/2000/svg">
<path d="M8.3335 5.72949H20.8335" stroke="#141B34" stroke-width="1.5" stroke-linecap="round"/>
<path d="M8.3335 13.0205H20.8335" stroke="#141B34" stroke-width="1.5" stroke-linecap="round"/>
<path d="M8.3335 20.3125H20.8335" stroke="#141B34" stroke-width="1.5" stroke-linecap="round"/>
<path d="M4.55713 5.72917H4.42692M4.68734 5.72917C4.68734 5.87299 4.57074 5.98958 4.42692 5.98958C4.2831 5.98958 4.1665 5.87299 4.1665 5.72917C4.1665 5.58534 4.2831 5.46875 4.42692 5.46875C4.57074 5.46875 4.68734 5.58534 4.68734 5.72917Z" stroke="#141B34" stroke-width="1.5" stroke-linecap="round" stroke-linejoin="round"/>
<path d="M4.55713 13.0212H4.42692M4.68734 13.0212C4.68734 13.165 4.57074 13.2816 4.42692 13.2816C4.2831 13.2816 4.1665 13.165 4.1665 13.0212C4.1665 12.8773 4.2831 12.7607 4.42692 12.7607C4.57074 12.7607 4.68734 12.8773 4.68734 13.0212Z" stroke="#141B34" stroke-width="1.5" stroke-linecap="round" stroke-linejoin="round"/>
<path d="M4.55713 20.3122H4.42692M4.68734 20.3122C4.68734 20.456 4.57074 20.5726 4.42692 20.5726C4.2831 20.5726 4.1665 20.456 4.1665 20.3122C4.1665 20.1683 4.2831 20.0518 4.42692 20.0518C4.57074 20.0518 4.68734 20.1683 4.68734 20.3122Z" stroke="#141B34" stroke-width="1.5" stroke-linecap="round" stroke-linejoin="round"/>
</svg>
