<svg width="25" height="28" viewBox="0 0 25 28" fill="none" xmlns="http://www.w3.org/2000/svg">
<path d="M11.7251 3.89382L18.4291 6.51711C22.2958 8.03015 24.229 8.78667 24.165 9.98671C24.1009 11.1867 22.0833 11.737 18.0479 12.8375C16.8464 13.1653 16.2456 13.3291 15.8291 13.7456C15.4126 14.1621 15.2488 14.7629 14.921 15.9644C13.8205 19.9998 13.2703 22.0174 12.0703 22.0815C10.8702 22.1455 10.1136 20.2123 8.6006 16.3456L5.97732 9.64163C4.39323 5.5934 3.60118 3.56927 4.62697 2.54347C5.65277 1.51768 7.67689 2.30973 11.7251 3.89382Z" fill="#595959" stroke="#141B34" stroke-width="1.5" stroke-linejoin="round"/>
<path d="M21.6665 27.0705V27.083M19.1665 19.58C19.1665 18.201 20.2858 17.083 21.6665 17.083C23.0473 17.083 24.1665 18.201 24.1665 19.58C24.1665 20.3014 23.8603 20.9513 23.3705 21.4071C22.613 22.1123 21.6665 22.9155 21.6665 23.9499" stroke="#141B34" stroke-width="1.5" stroke-linecap="round" stroke-linejoin="round"/>
</svg>
