<svg width="20" height="20" viewBox="0 0 20 20" fill="none" xmlns="http://www.w3.org/2000/svg">
<path d="M16.6665 7.50033C16.0038 4.17912 12.9272 1.66699 9.23259 1.66699C5.05441 1.66699 1.6665 4.87967 1.6665 8.84199C1.6665 10.7458 2.44833 12.4757 3.72363 13.7593C4.00441 14.042 4.19188 14.4282 4.11622 14.8256C3.99135 15.4754 3.70839 16.0816 3.29405 16.5867C4.3842 16.7877 5.51773 16.6067 6.48985 16.0942C6.8335 15.9132 7.00531 15.8226 7.12656 15.8042C7.21144 15.7913 7.322 15.8033 7.49984 15.8338" stroke="#141B34" stroke-width="2" stroke-linecap="round" stroke-linejoin="round"/>
<path d="M9.1665 13.5517C9.1665 15.9732 11.2188 17.9365 13.7498 17.9365C14.0474 17.9368 14.3442 17.9093 14.6365 17.8545C14.8469 17.8149 14.9522 17.7952 15.0256 17.8064C15.099 17.8176 15.2032 17.873 15.4113 17.9837C16.0002 18.2968 16.6868 18.4074 17.3473 18.2846C17.0963 17.9759 16.9248 17.6055 16.8492 17.2083C16.8033 16.9655 16.9169 16.7295 17.087 16.5567C17.8596 15.7722 18.3332 14.7152 18.3332 13.5517C18.3332 11.1303 16.2808 9.16699 13.7498 9.16699C11.2188 9.16699 9.1665 11.1303 9.1665 13.5517Z" stroke="#141B34" stroke-width="2" stroke-linejoin="round"/>
</svg>
