<svg width="18" height="5" viewBox="0 0 18 5" fill="none" xmlns="http://www.w3.org/2000/svg">
<path d="M8.76979 3.79519C9.30618 3.79519 9.74102 3.16947 9.74102 2.3976C9.74102 1.62572 9.30618 1 8.76979 1C8.2334 1 7.79857 1.62572 7.79857 2.3976C7.79857 3.16947 8.2334 3.79519 8.76979 3.79519Z" stroke="#212326" stroke-width="2" stroke-linecap="round" stroke-linejoin="round"/>
<path d="M15.5684 3.79519C16.1048 3.79519 16.5396 3.16947 16.5396 2.3976C16.5396 1.62572 16.1048 1 15.5684 1C15.032 1 14.5971 1.62572 14.5971 2.3976C14.5971 3.16947 15.032 3.79519 15.5684 3.79519Z" stroke="#212326" stroke-width="2" stroke-linecap="round" stroke-linejoin="round"/>
<path d="M1.97122 3.79519C2.50762 3.79519 2.94245 3.16947 2.94245 2.3976C2.94245 1.62572 2.50762 1 1.97122 1C1.43483 1 1 1.62572 1 2.3976C1 3.16947 1.43483 3.79519 1.97122 3.79519Z" stroke="#212326" stroke-width="2" stroke-linecap="round" stroke-linejoin="round"/>
</svg>
