<svg width="27" height="27" viewBox="0 0 27 27" fill="none" xmlns="http://www.w3.org/2000/svg">
<path d="M18.2501 9.49986C18.2501 4.66745 14.3326 0.75 9.50007 0.75C4.66754 0.75 0.75 4.66745 0.75 9.49986C0.75 14.3323 4.66754 18.2497 9.50007 18.2497" stroke="#212326" stroke-width="1.5"/>
<path d="M18.2501 9.5H17.0001C13.4645 9.5 11.6968 9.5 10.5984 10.5983C9.5 11.6967 9.5 13.4644 9.5 16.9999V18.2499C9.5 21.7853 9.5 23.553 10.5984 24.6514C11.6968 25.7497 13.4645 25.7497 17.0001 25.7497H18.2501C21.7856 25.7497 23.5534 25.7497 24.6517 24.6514C25.7501 23.553 25.7501 21.7853 25.7501 18.2499V16.9999C25.7501 13.4644 25.7501 11.6967 24.6517 10.5983C23.5534 9.5 21.7856 9.5 18.2501 9.5Z" stroke="#212326" stroke-width="1.5"/>
</svg>
