<svg width="142" height="14" viewBox="0 0 142 14" fill="none" xmlns="http://www.w3.org/2000/svg">
<path d="M6.60509 7.39514H8.42773C8.36939 8.05899 8.17497 8.65083 7.84446 9.17074C7.51396 9.68607 7.04982 10.0923 6.45205 10.3893C5.85418 10.6865 5.12758 10.835 4.27214 10.835C3.61604 10.835 3.02553 10.7236 2.5006 10.5008C1.97567 10.2733 1.52615 9.95296 1.15181 9.5398C0.77758 9.12205 0.490905 8.61833 0.291578 8.02874C0.0971566 7.43925 0 6.77999 0 6.05115V5.20863C0 4.47979 0.0996112 3.82062 0.298832 3.23103C0.502958 2.64144 0.794643 2.13772 1.17378 1.71998C1.55281 1.29755 2.00724 0.974842 2.53707 0.752065C3.0717 0.529185 3.67192 0.417848 4.33773 0.417848C5.18346 0.417848 5.8979 0.566366 6.48117 0.863504C7.06443 1.16054 7.51641 1.57136 7.83721 2.09596C8.16281 2.62056 8.36214 3.22176 8.43498 3.89947H6.61245C6.56382 3.46308 6.45685 3.08944 6.29165 2.77835C6.13125 2.46736 5.8931 2.23062 5.57721 2.06815C5.26121 1.90099 4.84816 1.81746 4.33773 1.81746C3.91978 1.81746 3.55525 1.89172 3.24426 2.04024C2.93317 2.18886 2.67316 2.40705 2.46413 2.69482C2.25509 2.98269 2.09715 3.33779 1.99028 3.76022C1.88822 4.17807 1.83714 4.65622 1.83714 5.19467V6.05115C1.83714 6.56179 1.88332 7.02609 1.97567 7.44384C2.07294 7.857 2.21873 8.2121 2.41315 8.50924C2.61237 8.80637 2.86512 9.03618 3.17131 9.19865C3.4775 9.36113 3.84448 9.44231 4.27214 9.44231C4.79227 9.44231 5.21268 9.36347 5.53338 9.20558C5.85908 9.04779 6.10448 8.81799 6.26979 8.51626C6.43989 8.20986 6.55166 7.83612 6.60509 7.39514ZM9.57964 7.01214V6.85201C9.57964 6.30886 9.6623 5.80515 9.8275 5.34095C9.9928 4.87207 10.2309 4.46583 10.5419 4.12235C10.8579 3.77417 11.2419 3.50495 11.6939 3.31456C12.1507 3.11959 12.666 3.02211 13.2394 3.02211C13.8178 3.02211 14.333 3.11959 14.785 3.31456C15.2419 3.50495 15.6282 3.77417 15.9442 4.12235C16.2601 4.46583 16.5007 4.87207 16.6659 5.34095C16.8312 5.80515 16.9138 6.30886 16.9138 6.85201V7.01214C16.9138 7.55528 16.8312 8.05899 16.6659 8.52319C16.5007 8.98739 16.2601 9.39362 15.9442 9.74179C15.6282 10.0853 15.2443 10.3545 14.7923 10.5495C14.3404 10.7399 13.8276 10.835 13.254 10.835C12.6757 10.835 12.158 10.7399 11.7011 10.5495C11.2491 10.3545 10.8652 10.0853 10.5493 9.74179C10.2333 9.39362 9.9928 8.98739 9.8275 8.52319C9.6623 8.05899 9.57964 7.55528 9.57964 7.01214ZM11.3366 6.85201V7.01214C11.3366 7.35104 11.3731 7.6713 11.446 7.97302C11.5188 8.27485 11.6331 8.53939 11.7887 8.76685C11.9442 8.99441 12.1435 9.17308 12.3864 9.30306C12.6295 9.43304 12.9186 9.49803 13.254 9.49803C13.5796 9.49803 13.8616 9.43304 14.0997 9.30306C14.3427 9.17308 14.542 8.99441 14.6975 8.76685C14.853 8.53939 14.9672 8.27485 15.0402 7.97302C15.1179 7.6713 15.1569 7.35104 15.1569 7.01214V6.85201C15.1569 6.51769 15.1179 6.20201 15.0402 5.90497C14.9672 5.60325 14.8507 5.33626 14.6903 5.10412C14.5347 4.87207 14.3354 4.69095 14.0924 4.56098C13.8542 4.42641 13.5699 4.35908 13.2394 4.35908C12.9089 4.35908 12.6222 4.42641 12.3792 4.56098C12.141 4.69095 11.9442 4.87207 11.7887 5.10412C11.6331 5.33626 11.5188 5.60325 11.446 5.90497C11.3731 6.20201 11.3366 6.51769 11.3366 6.85201ZM20.1289 4.7699V10.6958H18.3719V3.16136H20.0269L20.1289 4.7699ZM19.8154 6.65001L19.2467 6.64308C19.2516 6.10921 19.3294 5.61945 19.4801 5.17379C19.6356 4.72813 19.8494 4.34512 20.1217 4.02486C20.3987 3.7045 20.7292 3.4585 21.1131 3.28675C21.4971 3.11033 21.9248 3.02211 22.3963 3.02211C22.7753 3.02211 23.118 3.07315 23.4242 3.17532C23.7353 3.2728 24.0002 3.43293 24.2188 3.65581C24.4425 3.87858 24.6126 4.16869 24.7292 4.52624C24.8458 4.87899 24.9041 5.31304 24.9041 5.82837V10.6958H23.1399V5.82134C23.1399 5.45932 23.084 5.17379 22.9722 4.96487C22.8652 4.75136 22.7073 4.6005 22.4984 4.51228C22.2942 4.41938 22.039 4.37303 21.7328 4.37303C21.4314 4.37303 21.1617 4.43334 20.9236 4.55405C20.6854 4.67476 20.4838 4.83957 20.3185 5.0485C20.1581 5.25732 20.0341 5.49874 19.9467 5.77265C19.8592 6.04656 19.8154 6.33902 19.8154 6.65001ZM30.3137 3.16136V4.38689H25.8666V3.16136H30.3137ZM27.1496 1.31609H28.9067V8.61375C28.9067 8.84579 28.9407 9.02457 29.0087 9.14986C29.0816 9.27057 29.1812 9.35186 29.3076 9.39362C29.434 9.43539 29.5822 9.45627 29.7523 9.45627C29.8739 9.45627 29.9905 9.44934 30.1023 9.43538C30.2141 9.42143 30.304 9.40758 30.372 9.39362L30.3793 10.6749C30.2335 10.7166 30.0634 10.7538 29.869 10.7863C29.6795 10.8188 29.4607 10.835 29.2129 10.835C28.8094 10.835 28.4523 10.7677 28.1412 10.6331C27.8301 10.4939 27.5871 10.2686 27.4121 9.95764C27.2371 9.64665 27.1496 9.23349 27.1496 8.71816V1.31609ZM33.5506 3.16136V10.6958H31.7864V3.16136H33.5506ZM31.6698 1.18376C31.6698 0.928493 31.7572 0.717227 31.9322 0.550067C32.112 0.378324 32.3599 0.292452 32.6758 0.292452C32.9869 0.292452 33.2323 0.378324 33.4122 0.550067C33.592 0.717227 33.6819 0.928493 33.6819 1.18376C33.6819 1.43445 33.592 1.64338 33.4122 1.81043C33.2323 1.97759 32.9869 2.06112 32.6758 2.06112C32.3599 2.06112 32.112 1.97759 31.9322 1.81043C31.7572 1.64338 31.6698 1.43445 31.6698 1.18376ZM37.2177 4.7699V10.6958H35.4608V3.16136H37.1157L37.2177 4.7699ZM36.9043 6.65001L36.3356 6.64308C36.3404 6.10921 36.4183 5.61945 36.5689 5.17379C36.7245 4.72813 36.9383 4.34512 37.2105 4.02486C37.4876 3.7045 37.8181 3.4585 38.202 3.28675C38.5859 3.11033 39.0136 3.02211 39.4851 3.02211C39.8642 3.02211 40.2069 3.07315 40.5131 3.17532C40.8241 3.2728 41.089 3.43293 41.3077 3.65581C41.5313 3.87858 41.7014 4.16869 41.818 4.52624C41.9347 4.87899 41.9931 5.31304 41.9931 5.82837V10.6958H40.2288V5.82134C40.2288 5.45932 40.1729 5.17379 40.061 4.96487C39.9541 4.75136 39.7962 4.6005 39.5872 4.51228C39.383 4.41938 39.1278 4.37303 38.8216 4.37303C38.5204 4.37303 38.2506 4.43334 38.0124 4.55405C37.7742 4.67476 37.5726 4.83957 37.4074 5.0485C37.247 5.25732 37.123 5.49874 37.0355 5.77265C36.948 6.04656 36.9043 6.33902 36.9043 6.65001ZM48.5326 8.92005V3.16136H50.2968V10.6958H48.6346L48.5326 8.92005ZM48.7804 7.35338L49.3709 7.33942C49.3709 7.84538 49.3126 8.31192 49.196 8.73904C49.0794 9.16147 48.8995 9.53053 48.6565 9.8462C48.4134 10.1573 48.1024 10.401 47.7233 10.5774C47.3442 10.7491 46.8897 10.835 46.36 10.835C45.9761 10.835 45.6237 10.7816 45.3029 10.6749C44.9821 10.5681 44.705 10.4033 44.4718 10.1804C44.2433 9.95764 44.066 9.66753 43.9396 9.30999C43.8132 8.95255 43.75 8.52553 43.75 8.02874V3.16136H45.507V8.0427C45.507 8.31661 45.5411 8.54642 45.6091 8.73211C45.6771 8.91313 45.7695 9.0594 45.8862 9.17074C46.0027 9.28218 46.1388 9.36112 46.2944 9.40757C46.4499 9.45392 46.6151 9.47715 46.7901 9.47715C47.2907 9.47715 47.6845 9.38435 47.9712 9.19865C48.2628 9.00827 48.4694 8.753 48.5909 8.43263C48.7173 8.11237 48.7804 7.75259 48.7804 7.35338ZM55.5751 10.835C54.9919 10.835 54.4646 10.7445 53.9931 10.5634C53.5265 10.3777 53.128 10.1201 52.7975 9.79048C52.4719 9.46095 52.2216 9.07326 52.0465 8.6276C51.8716 8.18194 51.7841 7.70145 51.7841 7.18622V6.90762C51.7841 6.31813 51.874 5.78426 52.0539 5.30611C52.2337 4.82796 52.484 4.41938 52.8048 4.08058C53.1255 3.73699 53.5046 3.47469 53.9421 3.29368C54.3795 3.11267 54.8534 3.02211 55.3637 3.02211C55.9275 3.02211 56.4209 3.11267 56.8437 3.29368C57.2666 3.47469 57.6165 3.73007 57.8935 4.0597C58.1754 4.38465 58.3844 4.77224 58.5205 5.22258C58.6614 5.67282 58.7319 6.16951 58.7319 6.71265V7.42988H52.6371V6.22523H56.9968V6.09291C56.9871 5.79119 56.9239 5.50801 56.8072 5.24346C56.6955 4.97882 56.5229 4.76531 56.2896 4.60284C56.0563 4.44027 55.7452 4.35908 55.3564 4.35908C55.0648 4.35908 54.8048 4.41938 54.5764 4.54009C54.3528 4.65622 54.1657 4.82562 54.015 5.0485C53.8644 5.27127 53.7477 5.5405 53.665 5.85618C53.5873 6.16727 53.5484 6.51769 53.5484 6.90762V7.18622C53.5484 7.51585 53.5946 7.82216 53.6869 8.10534C53.7842 8.38394 53.9251 8.6276 54.1098 8.83653C54.2945 9.04545 54.518 9.21027 54.7805 9.33097C55.043 9.447 55.3419 9.50506 55.6772 9.50506C56.1001 9.50506 56.4767 9.42377 56.8072 9.2613C57.1377 9.09883 57.4245 8.86902 57.6675 8.57188L58.5934 9.42846C58.4233 9.66519 58.2021 9.89265 57.9299 10.1108C57.6578 10.3244 57.3248 10.4984 56.9312 10.6331C56.5423 10.7677 56.0904 10.835 55.5751 10.835ZM65.9642 9.02457L67.7869 3.16136H68.9099L68.6027 4.91618L66.7662 10.6958H65.7595L65.9642 9.02457ZM64.8924 3.16136L66.314 9.05237L66.4303 10.6958H65.3083L63.1722 3.16136H64.8924ZM70.6152 8.9828L71.9931 3.16136H73.7069L71.5772 10.6958H70.4552L70.6152 8.9828ZM69.0986 3.16136L70.9 8.95489L71.126 10.6958H70.1193L68.2604 4.90915L67.9543 3.16136H69.0986ZM76.7827 3.16136V10.6958H75.0187V3.16136H76.7827ZM74.9025 1.18376C74.9025 0.928493 74.9899 0.717227 75.1648 0.550067C75.344 0.378324 75.5925 0.292452 75.9082 0.292452C76.2196 0.292452 76.4649 0.378324 76.6441 0.550067C76.8243 0.717227 76.9139 0.928493 76.9139 1.18376C76.9139 1.43445 76.8243 1.64338 76.6441 1.81043C76.4649 1.97759 76.2196 2.06112 75.9082 2.06112C75.5925 2.06112 75.344 1.97759 75.1648 1.81043C74.9899 1.64338 74.9025 1.43445 74.9025 1.18376ZM82.3242 3.16136V4.38689H77.8769V3.16136H82.3242ZM79.1599 1.31609H80.9164V8.61375C80.9164 8.84579 80.9506 9.02457 81.0188 9.14986C81.0913 9.27057 81.1916 9.35186 81.3174 9.39362C81.4443 9.43539 81.5926 9.45627 81.7622 9.45627C81.8837 9.45627 82.0011 9.44934 82.112 9.43538C82.224 9.42143 82.3146 9.40758 82.3818 9.39362L82.3893 10.6749C82.2431 10.7166 82.0736 10.7538 81.8795 10.7863C81.6896 10.8188 81.471 10.835 81.2225 10.835C80.8194 10.835 80.4621 10.7677 80.1517 10.6331C79.8403 10.4939 79.5972 10.2686 79.4223 9.95764C79.2474 9.64665 79.1599 9.23349 79.1599 8.71816V1.31609ZM85.4149 0V10.6958H83.6648V0H85.4149ZM85.1088 6.65001L84.5404 6.64308C84.5446 6.12316 84.6204 5.64267 84.7665 5.2016C84.9168 4.76063 85.1259 4.37762 85.3936 4.05267C85.6655 3.72304 85.9908 3.47011 86.3705 3.29368C86.7491 3.11267 87.1693 3.02211 87.631 3.02211C88.0203 3.02211 88.3701 3.07315 88.6815 3.17532C88.9972 3.27738 89.2692 3.4422 89.4974 3.66966C89.7256 3.89254 89.8984 4.18499 90.0157 4.54712C90.1373 4.90456 90.197 5.34095 90.197 5.85618V10.6958H88.433V5.84232C88.433 5.4802 88.3776 5.19233 88.2656 4.97882C88.159 4.76531 88.0011 4.61211 87.7921 4.51921C87.5831 4.42173 87.3271 4.37303 87.0263 4.37303C86.7107 4.37303 86.4312 4.43334 86.1881 4.55405C85.9492 4.67476 85.7508 4.83957 85.5898 5.0485C85.4298 5.25732 85.3082 5.49874 85.225 5.77265C85.1472 6.04656 85.1088 6.33902 85.1088 6.65001ZM104.02 5.51504V9.38659C103.869 9.57698 103.634 9.7859 103.313 10.0134C102.997 10.2361 102.577 10.4289 102.052 10.5913C101.527 10.7538 100.874 10.835 100.091 10.835C99.4254 10.835 98.8153 10.7282 98.2608 10.5147C97.7062 10.2965 97.2284 9.97853 96.8242 9.56068C96.4264 9.14293 96.1171 8.63463 95.8985 8.03577C95.6799 7.43222 95.5711 6.74515 95.5711 5.97455V5.27128C95.5711 4.50536 95.6703 3.82287 95.8697 3.22401C96.0734 2.62056 96.3656 2.10992 96.7442 1.69207C97.1239 1.27432 97.5804 0.958645 98.1147 0.745035C98.6543 0.526944 99.2643 0.417848 99.9447 0.417848C100.815 0.417848 101.534 0.557096 102.103 0.835593C102.676 1.10951 103.119 1.49017 103.43 1.97759C103.74 2.46501 103.938 3.02211 104.02 3.64878H102.227C102.168 3.29602 102.054 2.98035 101.884 2.70175C101.719 2.42325 101.48 2.20506 101.17 2.04727C100.863 1.8848 100.465 1.80351 99.9736 1.80351C99.5512 1.80351 99.179 1.88011 98.8591 2.03331C98.5381 2.18652 98.2704 2.41164 98.0571 2.70878C97.848 3.00581 97.6902 3.36794 97.5825 3.79506C97.4758 4.22217 97.4225 4.70959 97.4225 5.25732V5.97455C97.4225 6.53164 97.4833 7.02609 97.6049 7.45779C97.7307 7.88949 97.911 8.25396 98.1445 8.551C98.3824 8.84814 98.6714 9.07326 99.0116 9.22646C99.3518 9.37508 99.7357 9.44934 100.163 9.44934C100.581 9.44934 100.924 9.41685 101.191 9.35186C101.459 9.28218 101.67 9.201 101.826 9.1081C101.986 9.01061 102.11 8.91781 102.197 8.8296V6.81717H99.9885V5.51504H104.02ZM105.536 7.01214V6.85201C105.536 6.30886 105.62 5.80515 105.785 5.34095C105.95 4.87207 106.188 4.46583 106.499 4.12235C106.815 3.77417 107.199 3.50495 107.651 3.31456C108.108 3.11959 108.623 3.02211 109.197 3.02211C109.775 3.02211 110.29 3.11959 110.742 3.31456C111.199 3.50495 111.585 3.77417 111.901 4.12235C112.217 4.46583 112.458 4.87207 112.623 5.34095C112.788 5.80515 112.871 6.30886 112.871 6.85201V7.01214C112.871 7.55528 112.788 8.05899 112.623 8.52319C112.458 8.98739 112.217 9.39362 111.901 9.74179C111.585 10.0853 111.202 10.3545 110.749 10.5495C110.297 10.7399 109.784 10.835 109.211 10.835C108.632 10.835 108.115 10.7399 107.659 10.5495C107.206 10.3545 106.823 10.0853 106.506 9.74179C106.19 9.39362 105.95 8.98739 105.785 8.52319C105.62 8.05899 105.536 7.55528 105.536 7.01214ZM107.294 6.85201V7.01214C107.294 7.35104 107.33 7.6713 107.403 7.97302C107.476 8.27485 107.59 8.53939 107.746 8.76685C107.901 8.99441 108.1 9.17308 108.343 9.30306C108.587 9.43304 108.876 9.49803 109.211 9.49803C109.537 9.49803 109.818 9.43304 110.057 9.30306C110.299 9.17308 110.499 8.99441 110.654 8.76685C110.81 8.53939 110.924 8.27485 110.997 7.97302C111.075 7.6713 111.114 7.35104 111.114 7.01214V6.85201C111.114 6.51769 111.075 6.20201 110.997 5.90497C110.924 5.60325 110.808 5.33626 110.647 5.10412C110.491 4.87207 110.293 4.69095 110.05 4.56098C109.811 4.42641 109.527 4.35908 109.197 4.35908C108.866 4.35908 108.579 4.42641 108.336 4.56098C108.098 4.69095 107.901 4.87207 107.746 5.10412C107.59 5.33626 107.476 5.60325 107.403 5.90497C107.33 6.20201 107.294 6.51769 107.294 6.85201ZM114.009 7.01214V6.85201C114.009 6.30886 114.091 5.80515 114.256 5.34095C114.421 4.87207 114.659 4.46583 114.971 4.12235C115.286 3.77417 115.67 3.50495 116.122 3.31456C116.579 3.11959 117.095 3.02211 117.668 3.02211C118.247 3.02211 118.762 3.11959 119.214 3.31456C119.671 3.50495 120.057 3.77417 120.372 4.12235C120.689 4.46583 120.929 4.87207 121.094 5.34095C121.26 5.80515 121.343 6.30886 121.343 6.85201V7.01214C121.343 7.55528 121.26 8.05899 121.094 8.52319C120.929 8.98739 120.689 9.39362 120.372 9.74179C120.057 10.0853 119.673 10.3545 119.22 10.5495C118.769 10.7399 118.256 10.835 117.683 10.835C117.105 10.835 116.586 10.7399 116.13 10.5495C115.678 10.3545 115.294 10.0853 114.978 9.74179C114.662 9.39362 114.421 8.98739 114.256 8.52319C114.091 8.05899 114.009 7.55528 114.009 7.01214ZM115.765 6.85201V7.01214C115.765 7.35104 115.801 7.6713 115.875 7.97302C115.947 8.27485 116.062 8.53939 116.217 8.76685C116.373 8.99441 116.572 9.17308 116.814 9.30306C117.058 9.43304 117.348 9.49803 117.683 9.49803C118.008 9.49803 118.291 9.43304 118.528 9.30306C118.772 9.17308 118.971 8.99441 119.126 8.76685C119.281 8.53939 119.395 8.27485 119.469 7.97302C119.547 7.6713 119.585 7.35104 119.585 7.01214V6.85201C119.585 6.51769 119.547 6.20201 119.469 5.90497C119.395 5.60325 119.279 5.33626 119.119 5.10412C118.963 4.87207 118.764 4.69095 118.521 4.56098C118.283 4.42641 117.998 4.35908 117.668 4.35908C117.337 4.35908 117.051 4.42641 116.808 4.56098C116.569 4.69095 116.373 4.87207 116.217 5.10412C116.062 5.33626 115.947 5.60325 115.875 5.90497C115.801 6.20201 115.765 6.51769 115.765 6.85201ZM127.868 3.16136H129.464V10.4868C129.464 11.1646 129.314 11.7403 129.012 12.2137C128.71 12.6873 128.29 13.0471 127.75 13.2931C127.212 13.5438 126.587 13.6691 125.878 13.6691C125.576 13.6691 125.241 13.6273 124.871 13.5438C124.506 13.4602 124.152 13.3256 123.806 13.1399C123.466 12.9589 123.183 12.7198 122.953 12.4227L123.778 11.4339C124.059 11.7542 124.371 11.9886 124.711 12.1371C125.051 12.2858 125.408 12.36 125.783 12.36C126.186 12.36 126.528 12.2881 126.811 12.1442C127.097 12.0049 127.318 11.7983 127.474 11.5244C127.629 11.2505 127.707 10.9163 127.707 10.5217V4.86738L127.868 3.16136ZM122.508 7.01214V6.86586C122.508 6.29491 122.582 5.77499 122.727 5.30611C122.873 4.83254 123.082 4.42641 123.354 4.08751C123.627 3.74402 123.957 3.48172 124.346 3.30061C124.735 3.11491 125.175 3.02211 125.665 3.02211C126.176 3.02211 126.611 3.11033 126.971 3.28675C127.335 3.46308 127.639 3.71611 127.881 4.04575C128.125 4.37069 128.314 4.76063 128.451 5.21555C128.592 5.6659 128.696 6.16727 128.765 6.71968V7.18622C128.701 7.72468 128.594 8.21678 128.443 8.66244C128.293 9.1081 128.094 9.49345 127.845 9.8184C127.598 10.1433 127.292 10.394 126.927 10.5705C126.568 10.7468 126.142 10.835 125.651 10.835C125.169 10.835 124.735 10.7399 124.346 10.5495C123.962 10.3592 123.631 10.0923 123.354 9.74872C123.082 9.40523 122.873 9.00134 122.727 8.53715C122.582 8.06826 122.508 7.55986 122.508 7.01214ZM124.266 6.86586V7.01214C124.266 7.35562 124.3 7.67599 124.368 7.97302C124.441 8.27016 124.55 8.53246 124.696 8.75992C124.846 8.9828 125.036 9.15913 125.264 9.28911C125.498 9.4145 125.773 9.47715 126.089 9.47715C126.501 9.47715 126.84 9.39362 127.102 9.22646C127.37 9.0594 127.573 8.83418 127.714 8.551C127.86 8.26323 127.963 7.94287 128.02 7.59011V6.32975C127.991 6.05583 127.931 5.80046 127.838 5.56373C127.75 5.32699 127.632 5.12041 127.48 4.94398C127.33 4.76297 127.14 4.62372 126.912 4.52624C126.684 4.42407 126.414 4.37303 126.103 4.37303C125.787 4.37303 125.513 4.43802 125.279 4.568C125.046 4.69798 124.854 4.87665 124.703 5.10412C124.557 5.33158 124.448 5.59622 124.375 5.89794C124.302 6.19977 124.266 6.52237 124.266 6.86586ZM133.167 0V10.6958H131.403V0H133.167ZM138.57 10.835C137.986 10.835 137.46 10.7445 136.988 10.5634C136.521 10.3777 136.122 10.1201 135.792 9.79048C135.466 9.46095 135.216 9.07326 135.041 8.6276C134.866 8.18194 134.778 7.70145 134.778 7.18622V6.90762C134.778 6.31813 134.869 5.78426 135.048 5.30611C135.229 4.82796 135.478 4.41938 135.799 4.08058C136.12 3.73699 136.5 3.47469 136.937 3.29368C137.374 3.11267 137.848 3.02211 138.359 3.02211C138.922 3.02211 139.416 3.11267 139.838 3.29368C140.261 3.47469 140.611 3.73007 140.888 4.0597C141.17 4.38465 141.379 4.77224 141.515 5.22258C141.656 5.67282 141.727 6.16951 141.727 6.71265V7.42988H135.632V6.22523H139.991V6.09291C139.982 5.79119 139.919 5.50801 139.802 5.24346C139.69 4.97882 139.518 4.76531 139.284 4.60284C139.051 4.44027 138.739 4.35908 138.351 4.35908C138.059 4.35908 137.8 4.41938 137.571 4.54009C137.348 4.65622 137.16 4.82562 137.01 5.0485C136.859 5.27127 136.742 5.5405 136.66 5.85618C136.582 6.16727 136.544 6.51769 136.544 6.90762V7.18622C136.544 7.51585 136.589 7.82216 136.681 8.10534C136.779 8.38394 136.92 8.6276 137.104 8.83653C137.289 9.04545 137.513 9.21027 137.775 9.33097C138.038 9.447 138.336 9.50506 138.672 9.50506C139.095 9.50506 139.471 9.42377 139.802 9.2613C140.132 9.09883 140.419 8.86902 140.662 8.57188L141.588 9.42846C141.418 9.66519 141.197 9.89265 140.925 10.1108C140.653 10.3244 140.32 10.4984 139.925 10.6331C139.537 10.7677 139.085 10.835 138.57 10.835Z" fill="#1F1F1F"/>
</svg>
