<svg width="21" height="22" viewBox="0 0 21 22" fill="none" xmlns="http://www.w3.org/2000/svg">
<path d="M20.8517 10.8716C20.8517 10.1178 20.784 9.39309 20.6583 8.69727H10.6389V12.8091H16.3642C16.1176 14.1378 15.3682 15.2636 14.2415 16.0173V18.6844H17.6796C19.6912 16.8339 20.8517 14.1087 20.8517 10.8716Z" fill="#4285F4"/>
<path d="M10.6382 21.259C13.5105 21.259 15.9186 20.3071 17.6787 18.6837L14.2406 16.0166C13.2881 16.6544 12.0694 17.0312 10.6382 17.0312C7.86731 17.0312 5.52209 15.1614 4.6855 12.6489H1.13135V15.403C2.88188 18.877 6.47954 21.259 10.6382 21.259Z" fill="#34A853"/>
<path d="M4.68564 12.6493C4.47287 12.0115 4.35202 11.3303 4.35202 10.6297C4.35202 9.92905 4.47287 9.2478 4.68564 8.61001V5.85596H1.13149C0.411063 7.29097 0 8.91445 0 10.6297C0 12.3449 0.411063 13.9683 1.13149 15.4034L4.68564 12.6493Z" fill="#FBBC04"/>
<path d="M10.6382 4.22776C12.2 4.22776 13.6023 4.76403 14.7049 5.81733L17.7561 2.76851C15.9138 1.0533 13.5056 0 10.6382 0C6.47954 0 2.88188 2.38201 1.13135 5.85602L4.6855 8.61007C5.52209 6.09763 7.86731 4.22776 10.6382 4.22776Z" fill="#E94235"/>
</svg>
