<svg width="135" height="29" viewBox="0 0 135 29" fill="none" xmlns="http://www.w3.org/2000/svg">
<path d="M12.9375 8.48864V13.6023H0V8.48864H12.9375ZM2.50568 3.78409H9.5625V21.8097C9.5625 22.0824 9.60938 22.3125 9.70312 22.5C9.79688 22.679 9.94176 22.8153 10.1378 22.9091C10.3338 22.9943 10.5852 23.0369 10.892 23.0369C11.1051 23.0369 11.3523 23.0114 11.6335 22.9602C11.9233 22.9091 12.1364 22.8665 12.2727 22.8324L13.2955 27.7926C12.9801 27.8864 12.5284 28.0014 11.9403 28.1378C11.3608 28.2741 10.6705 28.3636 9.86932 28.4062C8.25 28.4915 6.89063 28.3253 5.79119 27.9077C4.69176 27.4815 3.86506 26.8125 3.31108 25.9006C2.7571 24.9886 2.48864 23.8466 2.50568 22.4744V3.78409ZM15.8171 28.125V8.48864H22.8739V28.125H15.8171ZM19.3455 6.44318C18.391 6.44318 17.5728 6.12784 16.891 5.49716C16.2092 4.86648 15.8683 4.10795 15.8683 3.22159C15.8683 2.33523 16.2092 1.5767 16.891 0.946022C17.5728 0.315341 18.391 0 19.3455 0C20.3086 0 21.1268 0.315341 21.8001 0.946022C22.4819 1.5767 22.8228 2.33523 22.8228 3.22159C22.8228 4.10795 22.4819 4.86648 21.8001 5.49716C21.1268 6.12784 20.3086 6.44318 19.3455 6.44318ZM32.8104 23.4716L32.8615 15.0852H33.782L38.5376 8.48864H46.4638L38.4865 18.767H36.4922L32.8104 23.4716ZM26.4695 28.125V1.94318H33.5263V28.125H26.4695ZM38.5888 28.125L34.0888 20.3523L38.6911 15.3409L46.6683 28.125H38.5888ZM48.3015 28.125V8.48864H55.3583V28.125H48.3015ZM51.8299 6.44318C50.8754 6.44318 50.0572 6.12784 49.3754 5.49716C48.6935 4.86648 48.3526 4.10795 48.3526 3.22159C48.3526 2.33523 48.6935 1.5767 49.3754 0.946022C50.0572 0.315341 50.8754 0 51.8299 0C52.793 0 53.6112 0.315341 54.2844 0.946022C54.9663 1.5767 55.3072 2.33523 55.3072 3.22159C55.3072 4.10795 54.9663 4.86648 54.2844 5.49716C53.6112 6.12784 52.793 6.44318 51.8299 6.44318ZM70.6641 8.48864V13.6023H57.7266V8.48864H70.6641ZM60.2322 3.78409H67.2891V21.8097C67.2891 22.0824 67.3359 22.3125 67.4297 22.5C67.5234 22.679 67.6683 22.8153 67.8643 22.9091C68.0604 22.9943 68.3118 23.0369 68.6186 23.0369C68.8317 23.0369 69.0788 23.0114 69.3601 22.9602C69.6499 22.9091 69.8629 22.8665 69.9993 22.8324L71.022 27.7926C70.7067 27.8864 70.255 28.0014 69.6669 28.1378C69.0874 28.2741 68.397 28.3636 67.5959 28.4062C65.9766 28.4915 64.6172 28.3253 63.5178 27.9077C62.4183 27.4815 61.5916 26.8125 61.0376 25.9006C60.4837 24.9886 60.2152 23.8466 60.2322 22.4744V3.78409ZM79.0153 28.4318C77.7624 28.4318 76.6545 28.2273 75.6914 27.8182C74.7369 27.4006 73.9869 26.7699 73.4414 25.9261C72.896 25.0824 72.6232 24.0085 72.6232 22.7045C72.6232 21.6307 72.8065 20.7145 73.1729 19.956C73.5394 19.1889 74.0508 18.5625 74.707 18.0767C75.3633 17.5909 76.1261 17.2202 76.9954 16.9645C77.8732 16.7088 78.8192 16.5426 79.8335 16.4659C80.9329 16.3807 81.815 16.2784 82.4798 16.1591C83.1531 16.0312 83.6389 15.8565 83.9371 15.6349C84.2354 15.4048 84.3846 15.1023 84.3846 14.7273V14.6761C84.3846 14.1648 84.1886 13.7727 83.7965 13.5C83.4045 13.2273 82.9016 13.0909 82.288 13.0909C81.6147 13.0909 81.065 13.2401 80.6388 13.5384C80.2212 13.8281 79.9698 14.2756 79.8846 14.8807H73.3903C73.4755 13.6875 73.8548 12.5881 74.5281 11.5824C75.2099 10.5682 76.2028 9.75852 77.5067 9.15341C78.8107 8.53977 80.4386 8.23295 82.3903 8.23295C83.7965 8.23295 85.0579 8.39915 86.1744 8.73153C87.2908 9.0554 88.2411 9.51136 89.0252 10.0994C89.8093 10.679 90.4059 11.3608 90.815 12.1449C91.2326 12.9205 91.4414 13.7642 91.4414 14.6761V28.125H84.8448V25.3636H84.6914C84.2994 26.0966 83.8221 26.6889 83.2596 27.1406C82.7056 27.5923 82.0707 27.9205 81.3548 28.125C80.6474 28.3295 79.8675 28.4318 79.0153 28.4318ZM81.3164 23.983C81.8533 23.983 82.3562 23.8722 82.8249 23.6506C83.3022 23.429 83.69 23.1094 83.9883 22.6918C84.2866 22.2741 84.4357 21.767 84.4357 21.1705V19.5341C84.2482 19.6108 84.0479 19.6832 83.8349 19.7514C83.6303 19.8196 83.4087 19.8835 83.1701 19.9432C82.94 20.0028 82.6928 20.0582 82.4286 20.1094C82.1729 20.1605 81.9045 20.2074 81.6232 20.25C81.0778 20.3352 80.6303 20.4759 80.2809 20.6719C79.94 20.8594 79.6843 21.0938 79.5138 21.375C79.3519 21.6477 79.271 21.9545 79.271 22.2955C79.271 22.8409 79.4627 23.2585 79.8462 23.5483C80.2298 23.8381 80.7198 23.983 81.3164 23.983ZM101.154 23.4716L101.205 15.0852H102.126L106.881 8.48864H114.808L106.83 18.767H104.836L101.154 23.4716ZM94.8132 28.125V1.94318H101.87V28.125H94.8132ZM106.933 28.125L102.433 20.3523L107.035 15.3409L115.012 28.125H106.933ZM122.117 28.4318C120.864 28.4318 119.756 28.2273 118.793 27.8182C117.838 27.4006 117.088 26.7699 116.543 25.9261C115.998 25.0824 115.725 24.0085 115.725 22.7045C115.725 21.6307 115.908 20.7145 116.275 19.956C116.641 19.1889 117.152 18.5625 117.809 18.0767C118.465 17.5909 119.228 17.2202 120.097 16.9645C120.975 16.7088 121.921 16.5426 122.935 16.4659C124.034 16.3807 124.917 16.2784 125.581 16.1591C126.255 16.0312 126.74 15.8565 127.039 15.6349C127.337 15.4048 127.486 15.1023 127.486 14.7273V14.6761C127.486 14.1648 127.29 13.7727 126.898 13.5C126.506 13.2273 126.003 13.0909 125.39 13.0909C124.716 13.0909 124.167 13.2401 123.74 13.5384C123.323 13.8281 123.071 14.2756 122.986 14.8807H116.492C116.577 13.6875 116.956 12.5881 117.63 11.5824C118.311 10.5682 119.304 9.75852 120.608 9.15341C121.912 8.53977 123.54 8.23295 125.492 8.23295C126.898 8.23295 128.159 8.39915 129.276 8.73153C130.392 9.0554 131.343 9.51136 132.127 10.0994C132.911 10.679 133.507 11.3608 133.917 12.1449C134.334 12.9205 134.543 13.7642 134.543 14.6761V28.125H127.946V25.3636H127.793C127.401 26.0966 126.924 26.6889 126.361 27.1406C125.807 27.5923 125.172 27.9205 124.456 28.125C123.749 28.3295 122.969 28.4318 122.117 28.4318ZM124.418 23.983C124.955 23.983 125.458 23.8722 125.926 23.6506C126.404 23.429 126.792 23.1094 127.09 22.6918C127.388 22.2741 127.537 21.767 127.537 21.1705V19.5341C127.35 19.6108 127.15 19.6832 126.936 19.7514C126.732 19.8196 126.51 19.8835 126.272 19.9432C126.042 20.0028 125.794 20.0582 125.53 20.1094C125.275 20.1605 125.006 20.2074 124.725 20.25C124.179 20.3352 123.732 20.4759 123.382 20.6719C123.042 20.8594 122.786 21.0938 122.615 21.375C122.453 21.6477 122.373 21.9545 122.373 22.2955C122.373 22.8409 122.564 23.2585 122.948 23.5483C123.331 23.8381 123.821 23.983 124.418 23.983Z" fill="#2766EC"/>
</svg>
