<svg width="180" height="39" viewBox="0 0 180 39" fill="none" xmlns="http://www.w3.org/2000/svg">
<path d="M17.25 11.3182V18.1364H0V11.3182H17.25ZM3.34091 5.04545H12.75V29.0795C12.75 29.4432 12.8125 29.75 12.9375 30C13.0625 30.2386 13.2557 30.4205 13.517 30.5455C13.7784 30.6591 14.1136 30.7159 14.5227 30.7159C14.8068 30.7159 15.1364 30.6818 15.5114 30.6136C15.8977 30.5455 16.1818 30.4886 16.3636 30.4432L17.7273 37.0568C17.3068 37.1818 16.7045 37.3352 15.9205 37.517C15.1477 37.6989 14.2273 37.8182 13.1591 37.875C11 37.9886 9.1875 37.767 7.72159 37.2102C6.25568 36.642 5.15341 35.75 4.41477 34.5341C3.67614 33.3182 3.31818 31.7955 3.34091 29.9659V5.04545ZM21.0895 37.5V11.3182H30.4986V37.5H21.0895ZM25.794 8.59091C24.5213 8.59091 23.4304 8.17045 22.5213 7.32955C21.6122 6.48864 21.1577 5.47727 21.1577 4.29545C21.1577 3.11364 21.6122 2.10227 22.5213 1.26136C23.4304 0.420454 24.5213 0 25.794 0C27.0781 0 28.169 0.420454 29.0668 1.26136C29.9759 2.10227 30.4304 3.11364 30.4304 4.29545C30.4304 5.47727 29.9759 6.48864 29.0668 7.32955C28.169 8.17045 27.0781 8.59091 25.794 8.59091ZM43.7472 31.2955L43.8153 20.1136H45.0426L51.3835 11.3182H61.9517L51.3153 25.0227H48.6562L43.7472 31.2955ZM35.2926 37.5V2.59091H44.7017V37.5H35.2926ZM51.4517 37.5L45.4517 27.1364L51.5881 20.4545L62.2244 37.5H51.4517ZM64.402 37.5V11.3182H73.8111V37.5H64.402ZM69.1065 8.59091C67.8338 8.59091 66.7429 8.17045 65.8338 7.32955C64.9247 6.48864 64.4702 5.47727 64.4702 4.29545C64.4702 3.11364 64.9247 2.10227 65.8338 1.26136C66.7429 0.420454 67.8338 0 69.1065 0C70.3906 0 71.4815 0.420454 72.3793 1.26136C73.2884 2.10227 73.7429 3.11364 73.7429 4.29545C73.7429 5.47727 73.2884 6.48864 72.3793 7.32955C71.4815 8.17045 70.3906 8.59091 69.1065 8.59091ZM94.2188 11.3182V18.1364H76.9688V11.3182H94.2188ZM80.3097 5.04545H89.7188V29.0795C89.7188 29.4432 89.7812 29.75 89.9062 30C90.0312 30.2386 90.2244 30.4205 90.4858 30.5455C90.7472 30.6591 91.0824 30.7159 91.4915 30.7159C91.7756 30.7159 92.1051 30.6818 92.4801 30.6136C92.8665 30.5455 93.1506 30.4886 93.3324 30.4432L94.696 37.0568C94.2756 37.1818 93.6733 37.3352 92.8892 37.517C92.1165 37.6989 91.196 37.8182 90.1278 37.875C87.9688 37.9886 86.1563 37.767 84.6903 37.2102C83.2244 36.642 82.1222 35.75 81.3835 34.5341C80.6449 33.3182 80.2869 31.7955 80.3097 29.9659V5.04545ZM105.354 37.9091C103.683 37.9091 102.206 37.6364 100.922 37.0909C99.6491 36.5341 98.6491 35.6932 97.9219 34.5682C97.1946 33.4432 96.831 32.0114 96.831 30.2727C96.831 28.8409 97.0753 27.6193 97.5639 26.608C98.0526 25.5852 98.7344 24.75 99.6094 24.1023C100.484 23.4545 101.501 22.9602 102.661 22.6193C103.831 22.2784 105.092 22.0568 106.445 21.9545C107.911 21.8409 109.087 21.7045 109.973 21.5455C110.871 21.375 111.518 21.142 111.916 20.8466C112.314 20.5398 112.513 20.1364 112.513 19.6364V19.5682C112.513 18.8864 112.251 18.3636 111.729 18C111.206 17.6364 110.536 17.4545 109.717 17.4545C108.82 17.4545 108.087 17.6534 107.518 18.0511C106.962 18.4375 106.626 19.0341 106.513 19.8409H97.8537C97.9673 18.25 98.473 16.7841 99.3707 15.4432C100.28 14.0909 101.604 13.0114 103.342 12.2045C105.081 11.3864 107.251 10.9773 109.854 10.9773C111.729 10.9773 113.411 11.1989 114.899 11.642C116.388 12.0739 117.655 12.6818 118.7 13.4659C119.746 14.2386 120.541 15.1477 121.087 16.1932C121.643 17.2273 121.922 18.3523 121.922 19.5682V37.5H113.126V33.8182H112.922C112.399 34.7955 111.763 35.5852 111.013 36.1875C110.274 36.7898 109.428 37.2273 108.473 37.5C107.53 37.7727 106.49 37.9091 105.354 37.9091ZM108.422 31.9773C109.138 31.9773 109.808 31.8295 110.433 31.5341C111.07 31.2386 111.587 30.8125 111.984 30.2557C112.382 29.6989 112.581 29.0227 112.581 28.2273V26.0455C112.331 26.1477 112.064 26.2443 111.78 26.3352C111.507 26.4261 111.212 26.5114 110.893 26.5909C110.587 26.6705 110.257 26.7443 109.905 26.8125C109.564 26.8807 109.206 26.9432 108.831 27C108.104 27.1136 107.507 27.3011 107.041 27.5625C106.587 27.8125 106.246 28.125 106.018 28.5C105.803 28.8636 105.695 29.2727 105.695 29.7273C105.695 30.4545 105.95 31.0114 106.462 31.3977C106.973 31.7841 107.626 31.9773 108.422 31.9773ZM134.872 31.2955L134.94 20.1136H136.168L142.509 11.3182H153.077L142.44 25.0227H139.781L134.872 31.2955ZM126.418 37.5V2.59091H135.827V37.5H126.418ZM142.577 37.5L136.577 27.1364L142.713 20.4545L153.349 37.5H142.577ZM162.822 37.9091C161.152 37.9091 159.675 37.6364 158.391 37.0909C157.118 36.5341 156.118 35.6932 155.391 34.5682C154.663 33.4432 154.3 32.0114 154.3 30.2727C154.3 28.8409 154.544 27.6193 155.033 26.608C155.521 25.5852 156.203 24.75 157.078 24.1023C157.953 23.4545 158.97 22.9602 160.129 22.6193C161.3 22.2784 162.561 22.0568 163.913 21.9545C165.379 21.8409 166.555 21.7045 167.442 21.5455C168.339 21.375 168.987 21.142 169.385 20.8466C169.783 20.5398 169.982 20.1364 169.982 19.6364V19.5682C169.982 18.8864 169.72 18.3636 169.197 18C168.675 17.6364 168.004 17.4545 167.186 17.4545C166.288 17.4545 165.555 17.6534 164.987 18.0511C164.43 18.4375 164.095 19.0341 163.982 19.8409H155.322C155.436 18.25 155.942 16.7841 156.839 15.4432C157.749 14.0909 159.072 13.0114 160.811 12.2045C162.55 11.3864 164.72 10.9773 167.322 10.9773C169.197 10.9773 170.879 11.1989 172.368 11.642C173.857 12.0739 175.124 12.6818 176.169 13.4659C177.214 14.2386 178.01 15.1477 178.555 16.1932C179.112 17.2273 179.391 18.3523 179.391 19.5682V37.5H170.595V33.8182H170.391C169.868 34.7955 169.232 35.5852 168.482 36.1875C167.743 36.7898 166.896 37.2273 165.942 37.5C164.999 37.7727 163.959 37.9091 162.822 37.9091ZM165.891 31.9773C166.607 31.9773 167.277 31.8295 167.902 31.5341C168.538 31.2386 169.055 30.8125 169.453 30.2557C169.851 29.6989 170.05 29.0227 170.05 28.2273V26.0455C169.8 26.1477 169.533 26.2443 169.249 26.3352C168.976 26.4261 168.68 26.5114 168.362 26.5909C168.055 26.6705 167.726 26.7443 167.374 26.8125C167.033 26.8807 166.675 26.9432 166.3 27C165.572 27.1136 164.976 27.3011 164.51 27.5625C164.055 27.8125 163.714 28.125 163.487 28.5C163.271 28.8636 163.163 29.2727 163.163 29.7273C163.163 30.4545 163.419 31.0114 163.93 31.3977C164.442 31.7841 165.095 31.9773 165.891 31.9773Z" fill="white"/>
</svg>
